<svg width="17" height="17" viewBox="0 0 17 17" fill="none" xmlns="http://www.w3.org/2000/svg">
<path d="M14.7 7.00005V5.60005C14.6997 5.35455 14.6349 5.11342 14.5121 4.90087C14.3892 4.68831 14.2126 4.51181 14 4.38905L9.09998 1.58905C8.88715 1.46618 8.64573 1.40149 8.39998 1.40149C8.15422 1.40149 7.9128 1.46618 7.69998 1.58905L2.79998 4.38905C2.58736 4.51181 2.41076 4.68831 2.2879 4.90087C2.16504 5.11342 2.10023 5.35455 2.09998 5.60005V11.2001C2.10023 11.4456 2.16504 11.6867 2.2879 11.8992C2.41076 12.1118 2.58736 12.2883 2.79998 12.4111L7.69998 15.2111C7.9128 15.3339 8.15422 15.3986 8.39998 15.3986C8.64573 15.3986 8.88715 15.3339 9.09998 15.2111L10.5 14.4131" stroke="#FF3B3B" stroke-width="2" stroke-linecap="round" stroke-linejoin="round"/>
<path d="M5.25 2.98901L11.55 6.59401" stroke="#FF3B3B" stroke-width="2" stroke-linecap="round" stroke-linejoin="round"/>
<path d="M2.30298 4.90002L8.39998 8.40002L14.497 4.90002" stroke="#FF3B3B" stroke-width="2" stroke-linecap="round" stroke-linejoin="round"/>
<path d="M8.40002 15.4V8.40002" stroke="#FF3B3B" stroke-width="2" stroke-linecap="round" stroke-linejoin="round"/>
<path d="M11.9 9.09998L15.4 12.6M11.9 12.6L15.4 9.09998" stroke="#FF3B3B" stroke-width="2" stroke-linecap="round" stroke-linejoin="round"/>
</svg>
