<svg width="17" height="17" viewBox="0 0 17 17" fill="none" xmlns="http://www.w3.org/2000/svg">
<path d="M6.95596 10.85C6.89346 10.6077 6.76719 10.3866 6.59029 10.2097C6.41338 10.0328 6.1923 9.90655 5.95006 9.84405L1.65556 8.73665C1.58229 8.71586 1.5178 8.67173 1.47188 8.61097C1.42597 8.5502 1.40112 8.47612 1.40112 8.39995C1.40112 8.32379 1.42597 8.24971 1.47188 8.18894C1.5178 8.12818 1.58229 8.08405 1.65556 8.06325L5.95006 6.95515C6.19222 6.89272 6.41324 6.76656 6.59014 6.58978C6.76703 6.41301 6.89335 6.19208 6.95596 5.94995L8.06335 1.65545C8.08394 1.5819 8.12802 1.51709 8.18888 1.47093C8.24973 1.42477 8.32402 1.39978 8.4004 1.39978C8.47679 1.39978 8.55107 1.42477 8.61193 1.47093C8.67279 1.51709 8.71687 1.5819 8.73746 1.65545L9.84415 5.94995C9.90665 6.1922 10.0329 6.41328 10.2098 6.59019C10.3867 6.76709 10.6078 6.89336 10.8501 6.95585L15.1446 8.06255C15.2184 8.08292 15.2835 8.12696 15.3299 8.18791C15.3764 8.24886 15.4015 8.32335 15.4015 8.39995C15.4015 8.47656 15.3764 8.55105 15.3299 8.612C15.2835 8.67295 15.2184 8.71698 15.1446 8.73735L10.8501 9.84405C10.6078 9.90655 10.3867 10.0328 10.2098 10.2097C10.0329 10.3866 9.90665 10.6077 9.84415 10.85L8.73675 15.1445C8.71617 15.218 8.67209 15.2828 8.61123 15.329C8.55037 15.3751 8.47609 15.4001 8.39971 15.4001C8.32332 15.4001 8.24904 15.3751 8.18818 15.329C8.12732 15.2828 8.08324 15.218 8.06265 15.1445L6.95596 10.85Z" stroke="white" stroke-width="1.5" stroke-linecap="round" stroke-linejoin="round"/>
<path d="M14 2.09998V4.89998" stroke="white" stroke-linecap="round" stroke-linejoin="round"/>
<path d="M15.4 3.5H12.6" stroke="white" stroke-linecap="round" stroke-linejoin="round"/>
<path d="M2.80005 11.9V13.3" stroke="white" stroke-linecap="round" stroke-linejoin="round"/>
<path d="M3.49998 12.6H2.09998" stroke="white" stroke-linecap="round" stroke-linejoin="round"/>
</svg>
