<svg width="41" height="32" viewBox="0 0 41 32" fill="none" xmlns="http://www.w3.org/2000/svg">
<path d="M37.6547 0C39.1875 2.1379 40.3055 4.56474 40.9066 7.17969C38.2618 7.05602 35.7613 7.69791 33.6274 8.91113C32.1607 9.74743 30.8745 10.8547 29.8285 12.1621C28.2356 14.1646 27.2193 16.6384 27.057 19.3594C26.985 20.5666 27.0987 21.7385 27.3451 22.8633C27.8921 25.3369 29.1547 27.5575 30.934 29.2949C28.6318 30.5788 26.0526 31.4446 23.3236 31.7803C23.3182 31.7749 23.3129 31.7645 23.3119 31.7627C22.0676 31.9158 20.7871 31.9682 19.4887 31.8916C8.07353 31.2319 -0.636592 21.6265 0.0365298 10.4424L7.49649 10.8838V10.8896C7.0697 18.0335 12.6358 24.1646 19.9272 24.5889H20.0658C19.6511 22.7749 19.4769 20.8781 19.5971 18.9346C19.7534 16.3492 20.4029 13.9048 21.4428 11.6846C23.2642 7.78588 26.2935 4.57608 30.0443 2.48535C32.3466 1.20143 34.9256 0.335704 37.6547 0Z" fill="#0070DB"/>
</svg>
